<mxfile host="app.diagrams.net" agent="Mozilla/5.0 (Windows NT 10.0; Win64; x64) AppleWebKit/537.36 (KHTML, like Gecko) Chrome/128.0.0.0 Safari/537.36 OPR/114.0.0.0" version="25.0.3">
  <diagram name="PÃ¡gina-1" id="_wGCmHtLaP5TXCvS311c">
    <mxGraphModel dx="1393" dy="763" grid="1" gridSize="10" guides="1" tooltips="1" connect="1" arrows="1" fold="1" page="1" pageScale="1" pageWidth="827" pageHeight="1169" math="0" shadow="0">
      <root>
        <mxCell id="0" />
        <mxCell id="1" parent="0" />
        <mxCell id="-jYH8yUtWvj2v2umFqog-2" value="INICIO" style="strokeWidth=2;html=1;shape=mxgraph.flowchart.start_1;whiteSpace=wrap;" vertex="1" parent="1">
          <mxGeometry x="94.5" y="40" width="100" height="60" as="geometry" />
        </mxCell>
        <mxCell id="-jYH8yUtWvj2v2umFqog-3" value="FIM" style="strokeWidth=2;html=1;shape=mxgraph.flowchart.start_1;whiteSpace=wrap;" vertex="1" parent="1">
          <mxGeometry x="431.5" y="1289" width="100" height="60" as="geometry" />
        </mxCell>
        <mxCell id="-jYH8yUtWvj2v2umFqog-4" value="CIDADE" style="html=1;strokeWidth=2;shape=manualInput;whiteSpace=wrap;rounded=1;size=26;arcSize=11;" vertex="1" parent="1">
          <mxGeometry x="94.5" y="210" width="100" height="60" as="geometry" />
        </mxCell>
        <mxCell id="-jYH8yUtWvj2v2umFqog-18" style="edgeStyle=orthogonalEdgeStyle;rounded=0;orthogonalLoop=1;jettySize=auto;html=1;entryX=0;entryY=0.5;entryDx=0;entryDy=0;" edge="1" parent="1" source="-jYH8yUtWvj2v2umFqog-5" target="-jYH8yUtWvj2v2umFqog-13">
          <mxGeometry relative="1" as="geometry" />
        </mxCell>
        <mxCell id="-jYH8yUtWvj2v2umFqog-78" value="SIM" style="edgeLabel;html=1;align=center;verticalAlign=middle;resizable=0;points=[];" vertex="1" connectable="0" parent="-jYH8yUtWvj2v2umFqog-18">
          <mxGeometry x="0.2421" y="4" relative="1" as="geometry">
            <mxPoint x="1" as="offset" />
          </mxGeometry>
        </mxCell>
        <mxCell id="-jYH8yUtWvj2v2umFqog-5" value="CIDADE&amp;nbsp; = PIRACICABA" style="strokeWidth=2;html=1;shape=mxgraph.flowchart.decision;whiteSpace=wrap;" vertex="1" parent="1">
          <mxGeometry x="81.5" y="300" width="126" height="100" as="geometry" />
        </mxCell>
        <mxCell id="-jYH8yUtWvj2v2umFqog-6" value="CONSTANTEPORKILOMETRO = 2.2" style="rounded=1;whiteSpace=wrap;html=1;absoluteArcSize=1;arcSize=14;strokeWidth=2;" vertex="1" parent="1">
          <mxGeometry x="50" y="140" width="210" height="40" as="geometry" />
        </mxCell>
        <mxCell id="-jYH8yUtWvj2v2umFqog-39" style="edgeStyle=orthogonalEdgeStyle;rounded=0;orthogonalLoop=1;jettySize=auto;html=1;exitX=1;exitY=0.5;exitDx=0;exitDy=0;exitPerimeter=0;entryX=0;entryY=0.5;entryDx=0;entryDy=0;" edge="1" parent="1" source="-jYH8yUtWvj2v2umFqog-9" target="-jYH8yUtWvj2v2umFqog-26">
          <mxGeometry relative="1" as="geometry" />
        </mxCell>
        <mxCell id="-jYH8yUtWvj2v2umFqog-79" value="SIM" style="edgeLabel;html=1;align=center;verticalAlign=middle;resizable=0;points=[];" vertex="1" connectable="0" parent="-jYH8yUtWvj2v2umFqog-39">
          <mxGeometry x="-0.0462" y="3" relative="1" as="geometry">
            <mxPoint x="1" as="offset" />
          </mxGeometry>
        </mxCell>
        <mxCell id="-jYH8yUtWvj2v2umFqog-9" value="CIDADE&amp;nbsp; = MURIAE" style="strokeWidth=2;html=1;shape=mxgraph.flowchart.decision;whiteSpace=wrap;" vertex="1" parent="1">
          <mxGeometry x="81.5" y="440" width="126" height="80" as="geometry" />
        </mxCell>
        <mxCell id="-jYH8yUtWvj2v2umFqog-40" style="edgeStyle=orthogonalEdgeStyle;rounded=0;orthogonalLoop=1;jettySize=auto;html=1;entryX=0;entryY=0.5;entryDx=0;entryDy=0;" edge="1" parent="1" source="-jYH8yUtWvj2v2umFqog-10" target="-jYH8yUtWvj2v2umFqog-31">
          <mxGeometry relative="1" as="geometry" />
        </mxCell>
        <mxCell id="-jYH8yUtWvj2v2umFqog-80" value="SIM" style="edgeLabel;html=1;align=center;verticalAlign=middle;resizable=0;points=[];" vertex="1" connectable="0" parent="-jYH8yUtWvj2v2umFqog-40">
          <mxGeometry x="-0.7228" y="-2" relative="1" as="geometry">
            <mxPoint as="offset" />
          </mxGeometry>
        </mxCell>
        <mxCell id="-jYH8yUtWvj2v2umFqog-10" value="CIDADE&amp;nbsp; = NITEROI" style="strokeWidth=2;html=1;shape=mxgraph.flowchart.decision;whiteSpace=wrap;" vertex="1" parent="1">
          <mxGeometry x="80" y="560" width="129" height="100" as="geometry" />
        </mxCell>
        <mxCell id="-jYH8yUtWvj2v2umFqog-41" style="edgeStyle=orthogonalEdgeStyle;rounded=0;orthogonalLoop=1;jettySize=auto;html=1;entryX=0;entryY=0.5;entryDx=0;entryDy=0;" edge="1" parent="1" source="-jYH8yUtWvj2v2umFqog-11" target="-jYH8yUtWvj2v2umFqog-36">
          <mxGeometry relative="1" as="geometry" />
        </mxCell>
        <mxCell id="-jYH8yUtWvj2v2umFqog-81" value="SIM" style="edgeLabel;html=1;align=center;verticalAlign=middle;resizable=0;points=[];" vertex="1" connectable="0" parent="-jYH8yUtWvj2v2umFqog-41">
          <mxGeometry x="0.3469" y="1" relative="1" as="geometry">
            <mxPoint as="offset" />
          </mxGeometry>
        </mxCell>
        <mxCell id="-jYH8yUtWvj2v2umFqog-83" style="edgeStyle=orthogonalEdgeStyle;rounded=0;orthogonalLoop=1;jettySize=auto;html=1;entryX=0.5;entryY=0;entryDx=0;entryDy=0;" edge="1" parent="1" source="-jYH8yUtWvj2v2umFqog-11" target="-jYH8yUtWvj2v2umFqog-82">
          <mxGeometry relative="1" as="geometry" />
        </mxCell>
        <mxCell id="-jYH8yUtWvj2v2umFqog-84" value="NAO" style="edgeLabel;html=1;align=center;verticalAlign=middle;resizable=0;points=[];" vertex="1" connectable="0" parent="-jYH8yUtWvj2v2umFqog-83">
          <mxGeometry x="0.04" y="2" relative="1" as="geometry">
            <mxPoint as="offset" />
          </mxGeometry>
        </mxCell>
        <mxCell id="-jYH8yUtWvj2v2umFqog-11" value="CIDADE&amp;nbsp; = VITORIA" style="strokeWidth=2;html=1;shape=mxgraph.flowchart.decision;whiteSpace=wrap;" vertex="1" parent="1">
          <mxGeometry x="80" y="700" width="129" height="100" as="geometry" />
        </mxCell>
        <mxCell id="-jYH8yUtWvj2v2umFqog-52" style="edgeStyle=orthogonalEdgeStyle;rounded=0;orthogonalLoop=1;jettySize=auto;html=1;entryX=0;entryY=0.5;entryDx=0;entryDy=0;" edge="1" parent="1" source="-jYH8yUtWvj2v2umFqog-12" target="-jYH8yUtWvj2v2umFqog-51">
          <mxGeometry relative="1" as="geometry" />
        </mxCell>
        <mxCell id="-jYH8yUtWvj2v2umFqog-12" value="CUSTOALUGEL = CONSTANTEPORKILOMETRO * DISTANCIA" style="rounded=1;whiteSpace=wrap;html=1;absoluteArcSize=1;arcSize=14;strokeWidth=2;" vertex="1" parent="1">
          <mxGeometry x="451.5" y="310" width="210" height="80" as="geometry" />
        </mxCell>
        <mxCell id="-jYH8yUtWvj2v2umFqog-19" style="edgeStyle=orthogonalEdgeStyle;rounded=0;orthogonalLoop=1;jettySize=auto;html=1;entryX=0;entryY=0.5;entryDx=0;entryDy=0;" edge="1" parent="1" source="-jYH8yUtWvj2v2umFqog-13" target="-jYH8yUtWvj2v2umFqog-12">
          <mxGeometry relative="1" as="geometry" />
        </mxCell>
        <mxCell id="-jYH8yUtWvj2v2umFqog-13" value="DISTANCIA = 168" style="rounded=1;whiteSpace=wrap;html=1;absoluteArcSize=1;arcSize=14;strokeWidth=2;" vertex="1" parent="1">
          <mxGeometry x="301.5" y="330" width="120" height="40" as="geometry" />
        </mxCell>
        <mxCell id="-jYH8yUtWvj2v2umFqog-15" style="edgeStyle=orthogonalEdgeStyle;rounded=0;orthogonalLoop=1;jettySize=auto;html=1;entryX=0.452;entryY=-0.05;entryDx=0;entryDy=0;entryPerimeter=0;" edge="1" parent="1" source="-jYH8yUtWvj2v2umFqog-2" target="-jYH8yUtWvj2v2umFqog-6">
          <mxGeometry relative="1" as="geometry" />
        </mxCell>
        <mxCell id="-jYH8yUtWvj2v2umFqog-17" style="edgeStyle=orthogonalEdgeStyle;rounded=0;orthogonalLoop=1;jettySize=auto;html=1;entryX=0.585;entryY=0.117;entryDx=0;entryDy=0;entryPerimeter=0;" edge="1" parent="1" source="-jYH8yUtWvj2v2umFqog-6" target="-jYH8yUtWvj2v2umFqog-4">
          <mxGeometry relative="1" as="geometry" />
        </mxCell>
        <mxCell id="-jYH8yUtWvj2v2umFqog-22" value="" style="strokeWidth=2;html=1;shape=mxgraph.flowchart.start_2;whiteSpace=wrap;" vertex="1" parent="1">
          <mxGeometry x="931.5" y="335" width="30" height="30" as="geometry" />
        </mxCell>
        <mxCell id="-jYH8yUtWvj2v2umFqog-67" style="edgeStyle=orthogonalEdgeStyle;rounded=0;orthogonalLoop=1;jettySize=auto;html=1;entryX=0;entryY=0.5;entryDx=0;entryDy=0;" edge="1" parent="1" source="-jYH8yUtWvj2v2umFqog-24" target="-jYH8yUtWvj2v2umFqog-57">
          <mxGeometry relative="1" as="geometry" />
        </mxCell>
        <mxCell id="-jYH8yUtWvj2v2umFqog-24" value="CUSTOALUGEL = CONSTANTEPORKILOMETRO * DISTANCIA" style="rounded=1;whiteSpace=wrap;html=1;absoluteArcSize=1;arcSize=14;strokeWidth=2;" vertex="1" parent="1">
          <mxGeometry x="451.5" y="440" width="210" height="80" as="geometry" />
        </mxCell>
        <mxCell id="-jYH8yUtWvj2v2umFqog-25" style="edgeStyle=orthogonalEdgeStyle;rounded=0;orthogonalLoop=1;jettySize=auto;html=1;entryX=0;entryY=0.5;entryDx=0;entryDy=0;" edge="1" parent="1" source="-jYH8yUtWvj2v2umFqog-26" target="-jYH8yUtWvj2v2umFqog-24">
          <mxGeometry relative="1" as="geometry" />
        </mxCell>
        <mxCell id="-jYH8yUtWvj2v2umFqog-26" value="DISTANCIA = 628" style="rounded=1;whiteSpace=wrap;html=1;absoluteArcSize=1;arcSize=14;strokeWidth=2;" vertex="1" parent="1">
          <mxGeometry x="301.5" y="460" width="120" height="40" as="geometry" />
        </mxCell>
        <mxCell id="-jYH8yUtWvj2v2umFqog-66" style="edgeStyle=orthogonalEdgeStyle;rounded=0;orthogonalLoop=1;jettySize=auto;html=1;entryX=0;entryY=0.5;entryDx=0;entryDy=0;" edge="1" parent="1" source="-jYH8yUtWvj2v2umFqog-29" target="-jYH8yUtWvj2v2umFqog-60">
          <mxGeometry relative="1" as="geometry" />
        </mxCell>
        <mxCell id="-jYH8yUtWvj2v2umFqog-29" value="CUSTOALUGEL = CONSTANTEPORKILOMETRO * DISTANCIA" style="rounded=1;whiteSpace=wrap;html=1;absoluteArcSize=1;arcSize=14;strokeWidth=2;" vertex="1" parent="1">
          <mxGeometry x="450" y="570" width="210" height="80" as="geometry" />
        </mxCell>
        <mxCell id="-jYH8yUtWvj2v2umFqog-30" style="edgeStyle=orthogonalEdgeStyle;rounded=0;orthogonalLoop=1;jettySize=auto;html=1;entryX=0;entryY=0.5;entryDx=0;entryDy=0;" edge="1" parent="1" source="-jYH8yUtWvj2v2umFqog-31" target="-jYH8yUtWvj2v2umFqog-29">
          <mxGeometry relative="1" as="geometry" />
        </mxCell>
        <mxCell id="-jYH8yUtWvj2v2umFqog-31" value="DISTANCIA = 424" style="rounded=1;whiteSpace=wrap;html=1;absoluteArcSize=1;arcSize=14;strokeWidth=2;" vertex="1" parent="1">
          <mxGeometry x="300" y="590" width="120" height="40" as="geometry" />
        </mxCell>
        <mxCell id="-jYH8yUtWvj2v2umFqog-65" style="edgeStyle=orthogonalEdgeStyle;rounded=0;orthogonalLoop=1;jettySize=auto;html=1;entryX=0;entryY=0.5;entryDx=0;entryDy=0;" edge="1" parent="1" source="-jYH8yUtWvj2v2umFqog-34" target="-jYH8yUtWvj2v2umFqog-63">
          <mxGeometry relative="1" as="geometry" />
        </mxCell>
        <mxCell id="-jYH8yUtWvj2v2umFqog-34" value="CUSTOALUGEL = CONSTANTEPORKILOMETRO * DISTANCIA" style="rounded=1;whiteSpace=wrap;html=1;absoluteArcSize=1;arcSize=14;strokeWidth=2;" vertex="1" parent="1">
          <mxGeometry x="451.5" y="710" width="210" height="80" as="geometry" />
        </mxCell>
        <mxCell id="-jYH8yUtWvj2v2umFqog-35" style="edgeStyle=orthogonalEdgeStyle;rounded=0;orthogonalLoop=1;jettySize=auto;html=1;entryX=0;entryY=0.5;entryDx=0;entryDy=0;" edge="1" parent="1" source="-jYH8yUtWvj2v2umFqog-36" target="-jYH8yUtWvj2v2umFqog-34">
          <mxGeometry relative="1" as="geometry" />
        </mxCell>
        <mxCell id="-jYH8yUtWvj2v2umFqog-36" value="DISTANCIA = 949" style="rounded=1;whiteSpace=wrap;html=1;absoluteArcSize=1;arcSize=14;strokeWidth=2;" vertex="1" parent="1">
          <mxGeometry x="301.5" y="730" width="120" height="40" as="geometry" />
        </mxCell>
        <mxCell id="-jYH8yUtWvj2v2umFqog-42" value="CIDADE&lt;div&gt;DISTANCIA&lt;/div&gt;&lt;div&gt;CUSTOALUGEL&lt;/div&gt;" style="strokeWidth=2;html=1;shape=mxgraph.flowchart.display;whiteSpace=wrap;" vertex="1" parent="1">
          <mxGeometry x="701.5" y="975" width="135.5" height="70" as="geometry" />
        </mxCell>
        <mxCell id="-jYH8yUtWvj2v2umFqog-45" style="edgeStyle=orthogonalEdgeStyle;rounded=0;orthogonalLoop=1;jettySize=auto;html=1;entryX=0.5;entryY=0;entryDx=0;entryDy=0;entryPerimeter=0;" edge="1" parent="1" source="-jYH8yUtWvj2v2umFqog-4" target="-jYH8yUtWvj2v2umFqog-5">
          <mxGeometry relative="1" as="geometry" />
        </mxCell>
        <mxCell id="-jYH8yUtWvj2v2umFqog-46" style="edgeStyle=orthogonalEdgeStyle;rounded=0;orthogonalLoop=1;jettySize=auto;html=1;entryX=0.5;entryY=0;entryDx=0;entryDy=0;entryPerimeter=0;" edge="1" parent="1" source="-jYH8yUtWvj2v2umFqog-5" target="-jYH8yUtWvj2v2umFqog-9">
          <mxGeometry relative="1" as="geometry" />
        </mxCell>
        <mxCell id="-jYH8yUtWvj2v2umFqog-49" style="edgeStyle=orthogonalEdgeStyle;rounded=0;orthogonalLoop=1;jettySize=auto;html=1;entryX=0.5;entryY=0;entryDx=0;entryDy=0;entryPerimeter=0;" edge="1" parent="1" source="-jYH8yUtWvj2v2umFqog-9" target="-jYH8yUtWvj2v2umFqog-10">
          <mxGeometry relative="1" as="geometry" />
        </mxCell>
        <mxCell id="-jYH8yUtWvj2v2umFqog-50" style="edgeStyle=orthogonalEdgeStyle;rounded=0;orthogonalLoop=1;jettySize=auto;html=1;entryX=0.5;entryY=0;entryDx=0;entryDy=0;entryPerimeter=0;" edge="1" parent="1" source="-jYH8yUtWvj2v2umFqog-10" target="-jYH8yUtWvj2v2umFqog-11">
          <mxGeometry relative="1" as="geometry" />
        </mxCell>
        <mxCell id="-jYH8yUtWvj2v2umFqog-51" value="NOMECIDADE = PIRACICABA" style="rounded=1;whiteSpace=wrap;html=1;absoluteArcSize=1;arcSize=14;strokeWidth=2;" vertex="1" parent="1">
          <mxGeometry x="701.5" y="330" width="180" height="40" as="geometry" />
        </mxCell>
        <mxCell id="-jYH8yUtWvj2v2umFqog-53" style="edgeStyle=orthogonalEdgeStyle;rounded=0;orthogonalLoop=1;jettySize=auto;html=1;entryX=0;entryY=0.5;entryDx=0;entryDy=0;entryPerimeter=0;" edge="1" parent="1" source="-jYH8yUtWvj2v2umFqog-51" target="-jYH8yUtWvj2v2umFqog-22">
          <mxGeometry relative="1" as="geometry" />
        </mxCell>
        <mxCell id="-jYH8yUtWvj2v2umFqog-56" value="" style="strokeWidth=2;html=1;shape=mxgraph.flowchart.start_2;whiteSpace=wrap;" vertex="1" parent="1">
          <mxGeometry x="931.5" y="465" width="30" height="30" as="geometry" />
        </mxCell>
        <mxCell id="-jYH8yUtWvj2v2umFqog-57" value="NOMECIDADE = MURIAE" style="rounded=1;whiteSpace=wrap;html=1;absoluteArcSize=1;arcSize=14;strokeWidth=2;" vertex="1" parent="1">
          <mxGeometry x="701.5" y="460" width="180" height="40" as="geometry" />
        </mxCell>
        <mxCell id="-jYH8yUtWvj2v2umFqog-58" style="edgeStyle=orthogonalEdgeStyle;rounded=0;orthogonalLoop=1;jettySize=auto;html=1;entryX=0;entryY=0.5;entryDx=0;entryDy=0;entryPerimeter=0;" edge="1" parent="1" source="-jYH8yUtWvj2v2umFqog-57" target="-jYH8yUtWvj2v2umFqog-56">
          <mxGeometry relative="1" as="geometry" />
        </mxCell>
        <mxCell id="-jYH8yUtWvj2v2umFqog-59" value="" style="strokeWidth=2;html=1;shape=mxgraph.flowchart.start_2;whiteSpace=wrap;" vertex="1" parent="1">
          <mxGeometry x="931.5" y="595" width="30" height="30" as="geometry" />
        </mxCell>
        <mxCell id="-jYH8yUtWvj2v2umFqog-60" value="NOMECIDADE = NITEROI" style="rounded=1;whiteSpace=wrap;html=1;absoluteArcSize=1;arcSize=14;strokeWidth=2;" vertex="1" parent="1">
          <mxGeometry x="701.5" y="590" width="180" height="40" as="geometry" />
        </mxCell>
        <mxCell id="-jYH8yUtWvj2v2umFqog-61" style="edgeStyle=orthogonalEdgeStyle;rounded=0;orthogonalLoop=1;jettySize=auto;html=1;entryX=0;entryY=0.5;entryDx=0;entryDy=0;entryPerimeter=0;" edge="1" parent="1" source="-jYH8yUtWvj2v2umFqog-60" target="-jYH8yUtWvj2v2umFqog-59">
          <mxGeometry relative="1" as="geometry" />
        </mxCell>
        <mxCell id="-jYH8yUtWvj2v2umFqog-62" value="" style="strokeWidth=2;html=1;shape=mxgraph.flowchart.start_2;whiteSpace=wrap;" vertex="1" parent="1">
          <mxGeometry x="931.5" y="735" width="30" height="30" as="geometry" />
        </mxCell>
        <mxCell id="-jYH8yUtWvj2v2umFqog-63" value="NOMECIDADE = VITORIA" style="rounded=1;whiteSpace=wrap;html=1;absoluteArcSize=1;arcSize=14;strokeWidth=2;" vertex="1" parent="1">
          <mxGeometry x="701.5" y="730" width="180" height="40" as="geometry" />
        </mxCell>
        <mxCell id="-jYH8yUtWvj2v2umFqog-64" style="edgeStyle=orthogonalEdgeStyle;rounded=0;orthogonalLoop=1;jettySize=auto;html=1;entryX=0;entryY=0.5;entryDx=0;entryDy=0;entryPerimeter=0;" edge="1" parent="1" source="-jYH8yUtWvj2v2umFqog-63" target="-jYH8yUtWvj2v2umFqog-62">
          <mxGeometry relative="1" as="geometry" />
        </mxCell>
        <mxCell id="-jYH8yUtWvj2v2umFqog-68" style="edgeStyle=orthogonalEdgeStyle;rounded=0;orthogonalLoop=1;jettySize=auto;html=1;entryX=0.5;entryY=0;entryDx=0;entryDy=0;entryPerimeter=0;" edge="1" parent="1" source="-jYH8yUtWvj2v2umFqog-22" target="-jYH8yUtWvj2v2umFqog-56">
          <mxGeometry relative="1" as="geometry" />
        </mxCell>
        <mxCell id="-jYH8yUtWvj2v2umFqog-69" style="edgeStyle=orthogonalEdgeStyle;rounded=0;orthogonalLoop=1;jettySize=auto;html=1;entryX=0.5;entryY=0;entryDx=0;entryDy=0;entryPerimeter=0;" edge="1" parent="1" source="-jYH8yUtWvj2v2umFqog-56" target="-jYH8yUtWvj2v2umFqog-59">
          <mxGeometry relative="1" as="geometry" />
        </mxCell>
        <mxCell id="-jYH8yUtWvj2v2umFqog-70" style="edgeStyle=orthogonalEdgeStyle;rounded=0;orthogonalLoop=1;jettySize=auto;html=1;entryX=0.5;entryY=0;entryDx=0;entryDy=0;entryPerimeter=0;" edge="1" parent="1" source="-jYH8yUtWvj2v2umFqog-59" target="-jYH8yUtWvj2v2umFqog-62">
          <mxGeometry relative="1" as="geometry" />
        </mxCell>
        <mxCell id="-jYH8yUtWvj2v2umFqog-71" value="" style="strokeWidth=2;html=1;shape=mxgraph.flowchart.start_2;whiteSpace=wrap;" vertex="1" parent="1">
          <mxGeometry x="467.75" y="860" width="40" height="40" as="geometry" />
        </mxCell>
        <mxCell id="-jYH8yUtWvj2v2umFqog-75" style="edgeStyle=orthogonalEdgeStyle;rounded=0;orthogonalLoop=1;jettySize=auto;html=1;entryX=1;entryY=0.5;entryDx=0;entryDy=0;entryPerimeter=0;" edge="1" parent="1" source="-jYH8yUtWvj2v2umFqog-62" target="-jYH8yUtWvj2v2umFqog-71">
          <mxGeometry relative="1" as="geometry">
            <Array as="points">
              <mxPoint x="947" y="880" />
            </Array>
          </mxGeometry>
        </mxCell>
        <mxCell id="-jYH8yUtWvj2v2umFqog-82" value="NOMECIDADE = NULL" style="rounded=1;whiteSpace=wrap;html=1;absoluteArcSize=1;arcSize=14;strokeWidth=2;" vertex="1" parent="1">
          <mxGeometry x="54.5" y="860" width="180" height="40" as="geometry" />
        </mxCell>
        <mxCell id="-jYH8yUtWvj2v2umFqog-85" style="edgeStyle=orthogonalEdgeStyle;rounded=0;orthogonalLoop=1;jettySize=auto;html=1;entryX=0;entryY=0.5;entryDx=0;entryDy=0;entryPerimeter=0;" edge="1" parent="1" source="-jYH8yUtWvj2v2umFqog-82" target="-jYH8yUtWvj2v2umFqog-71">
          <mxGeometry relative="1" as="geometry" />
        </mxCell>
        <mxCell id="-jYH8yUtWvj2v2umFqog-86" value="NOMECIDADE != NULL" style="strokeWidth=2;html=1;shape=mxgraph.flowchart.decision;whiteSpace=wrap;" vertex="1" parent="1">
          <mxGeometry x="387.75" y="960" width="200" height="100" as="geometry" />
        </mxCell>
        <mxCell id="-jYH8yUtWvj2v2umFqog-87" style="edgeStyle=orthogonalEdgeStyle;rounded=0;orthogonalLoop=1;jettySize=auto;html=1;entryX=0.5;entryY=0;entryDx=0;entryDy=0;entryPerimeter=0;" edge="1" parent="1" source="-jYH8yUtWvj2v2umFqog-71" target="-jYH8yUtWvj2v2umFqog-86">
          <mxGeometry relative="1" as="geometry" />
        </mxCell>
        <mxCell id="-jYH8yUtWvj2v2umFqog-88" style="edgeStyle=orthogonalEdgeStyle;rounded=0;orthogonalLoop=1;jettySize=auto;html=1;entryX=0;entryY=0.5;entryDx=0;entryDy=0;entryPerimeter=0;" edge="1" parent="1" source="-jYH8yUtWvj2v2umFqog-86" target="-jYH8yUtWvj2v2umFqog-42">
          <mxGeometry relative="1" as="geometry" />
        </mxCell>
        <mxCell id="-jYH8yUtWvj2v2umFqog-89" value="SIM" style="edgeLabel;html=1;align=center;verticalAlign=middle;resizable=0;points=[];" vertex="1" connectable="0" parent="-jYH8yUtWvj2v2umFqog-88">
          <mxGeometry x="-0.3275" y="1" relative="1" as="geometry">
            <mxPoint as="offset" />
          </mxGeometry>
        </mxCell>
        <mxCell id="-jYH8yUtWvj2v2umFqog-90" value="Cidade nÃ£o atendida pela empresa" style="strokeWidth=2;html=1;shape=mxgraph.flowchart.display;whiteSpace=wrap;" vertex="1" parent="1">
          <mxGeometry x="140" y="965" width="155.5" height="90" as="geometry" />
        </mxCell>
        <mxCell id="-jYH8yUtWvj2v2umFqog-91" style="edgeStyle=orthogonalEdgeStyle;rounded=0;orthogonalLoop=1;jettySize=auto;html=1;entryX=1;entryY=0.5;entryDx=0;entryDy=0;entryPerimeter=0;" edge="1" parent="1" source="-jYH8yUtWvj2v2umFqog-86" target="-jYH8yUtWvj2v2umFqog-90">
          <mxGeometry relative="1" as="geometry" />
        </mxCell>
        <mxCell id="-jYH8yUtWvj2v2umFqog-92" value="NAO" style="edgeLabel;html=1;align=center;verticalAlign=middle;resizable=0;points=[];" vertex="1" connectable="0" parent="-jYH8yUtWvj2v2umFqog-91">
          <mxGeometry x="0.1003" y="3" relative="1" as="geometry">
            <mxPoint as="offset" />
          </mxGeometry>
        </mxCell>
        <mxCell id="-jYH8yUtWvj2v2umFqog-93" value="" style="strokeWidth=2;html=1;shape=mxgraph.flowchart.start_2;whiteSpace=wrap;" vertex="1" parent="1">
          <mxGeometry x="460" y="1190" width="43" height="40" as="geometry" />
        </mxCell>
        <mxCell id="-jYH8yUtWvj2v2umFqog-94" style="edgeStyle=orthogonalEdgeStyle;rounded=0;orthogonalLoop=1;jettySize=auto;html=1;entryX=1;entryY=0.5;entryDx=0;entryDy=0;entryPerimeter=0;" edge="1" parent="1" source="-jYH8yUtWvj2v2umFqog-42" target="-jYH8yUtWvj2v2umFqog-93">
          <mxGeometry relative="1" as="geometry">
            <Array as="points">
              <mxPoint x="769" y="1210" />
            </Array>
          </mxGeometry>
        </mxCell>
        <mxCell id="-jYH8yUtWvj2v2umFqog-95" style="edgeStyle=orthogonalEdgeStyle;rounded=0;orthogonalLoop=1;jettySize=auto;html=1;entryX=0;entryY=0.5;entryDx=0;entryDy=0;entryPerimeter=0;" edge="1" parent="1" source="-jYH8yUtWvj2v2umFqog-90" target="-jYH8yUtWvj2v2umFqog-93">
          <mxGeometry relative="1" as="geometry">
            <Array as="points">
              <mxPoint x="218" y="1210" />
            </Array>
          </mxGeometry>
        </mxCell>
        <mxCell id="-jYH8yUtWvj2v2umFqog-96" style="edgeStyle=orthogonalEdgeStyle;rounded=0;orthogonalLoop=1;jettySize=auto;html=1;entryX=0.5;entryY=0;entryDx=0;entryDy=0;entryPerimeter=0;" edge="1" parent="1" source="-jYH8yUtWvj2v2umFqog-93" target="-jYH8yUtWvj2v2umFqog-3">
          <mxGeometry relative="1" as="geometry" />
        </mxCell>
      </root>
    </mxGraphModel>
  </diagram>
</mxfile>
